<svg id="_9_-_Layout_1" data-name="9 - Layout 1" xmlns="http://www.w3.org/2000/svg" width="77.333" height="72.31" viewBox="0 0 77.333 72.31">
  <path id="Vector" d="M17.834,5.984H59.5a11.786,11.786,0,0,1,8.433,3.5,11.988,11.988,0,0,1,3.467,8.5V54.016a11.988,11.988,0,0,1-3.467,8.5,11.786,11.786,0,0,1-8.433,3.5H17.834A11.786,11.786,0,0,1,9.4,62.52a11.988,11.988,0,0,1-3.467-8.5V17.984A11.988,11.988,0,0,1,9.4,9.48a11.786,11.786,0,0,1,8.433-3.5Zm0-5.984a17.791,17.791,0,0,0-12.6,5.277A18.093,18.093,0,0,0,0,17.984V54.016A18.093,18.093,0,0,0,5.233,66.723,17.791,17.791,0,0,0,17.834,72H59.5a17.791,17.791,0,0,0,12.6-5.277,18.093,18.093,0,0,0,5.233-12.707V17.984A18.093,18.093,0,0,0,72.1,5.277,17.791,17.791,0,0,0,59.5,0Z" transform="translate(0 0)" fill="#a1a1a1"/>
  <path id="Vector-2" data-name="Vector" d="M2.124,0A3.159,3.159,0,0,0,.585,1.162a3.2,3.2,0,0,0,0,3.693A3.159,3.159,0,0,0,2.124,6.016h71.4a3.159,3.159,0,0,0,1.539-1.162,3.2,3.2,0,0,0,0-3.693A3.159,3.159,0,0,0,73.523,0Z" transform="translate(0.843 17.984)" fill="#a1a1a1"/>
  <path id="Vector-3" data-name="Vector" d="M1.98,0A3.163,3.163,0,0,0,.5,1.241a3.2,3.2,0,0,0,.194,3.7A3.155,3.155,0,0,0,2.3,6.016H5.263a2.99,2.99,0,0,0,1.919-.982,3.043,3.043,0,0,0,0-4.051A2.99,2.99,0,0,0,5.263,0H1.98Z" transform="translate(57.204 9.008)" fill="#a1a1a1"/>
  <path id="Vector-4" data-name="Vector" d="M1.993,0A3.162,3.162,0,0,0,.5,1.234a3.2,3.2,0,0,0,.175,3.7,3.155,3.155,0,0,0,1.6,1.085h3a2.99,2.99,0,0,0,1.919-.982,3.043,3.043,0,0,0,0-4.051A2.99,2.99,0,0,0,5.276,0H1.993Z" transform="translate(42.324 9.008)" fill="#a1a1a1"/>
  <path id="Vector-5" data-name="Vector" d="M2.951,0A3.146,3.146,0,0,0,.861,1.008,3.2,3.2,0,0,0,.016,3.183V51.024a3.04,3.04,0,0,0,.757,2.336,2.983,2.983,0,0,0,4.453,0,3.04,3.04,0,0,0,.757-2.336V3.056A3.2,3.2,0,0,0,5.059.93,3.144,3.144,0,0,0,2.951,0Z" transform="translate(26.751 17.952)" fill="#a1a1a1"/>
  <path id="Vector-6" data-name="Vector" d="M2.828.024A2.96,2.96,0,0,0,.772,1a3.011,3.011,0,0,0,.2,4.231,2.956,2.956,0,0,0,2.14.775H47.745a2.955,2.955,0,0,0,2.1-.876,3.01,3.01,0,0,0,0-4.231,2.955,2.955,0,0,0-2.1-.876H3.113A.438.438,0,0,0,2.828.024Z" transform="translate(26.621 41.992)" fill="#a1a1a1"/>
  <path id="Vector-7" data-name="Vector" d="M2.936,0A3.146,3.146,0,0,0,.845,1.008,3.2,3.2,0,0,0,0,3.183V27.151a3.021,3.021,0,0,0,.874,2.127,2.965,2.965,0,0,0,4.218,0,3.021,3.021,0,0,0,.874-2.127V3.056A3.2,3.2,0,0,0,5.044.93,3.144,3.144,0,0,0,2.936,0Z" transform="translate(49.083 17.952)" fill="#a1a1a1"/>
  <path id="Vector-8" data-name="Vector" d="M2.691,0A2.99,2.99,0,0,0,.772.982a3.043,3.043,0,0,0,0,4.051,2.99,2.99,0,0,0,1.919.982H5.658A3.159,3.159,0,0,0,7.2,4.854a3.2,3.2,0,0,0,0-3.693A3.159,3.159,0,0,0,5.658,0Z" transform="translate(12.176 29.984)" fill="#a1a1a1"/>
  <path id="Vector-9" data-name="Vector" d="M2.828.024A2.96,2.96,0,0,0,.772,1a3.011,3.011,0,0,0,.2,4.231,2.956,2.956,0,0,0,2.14.775H6.08a2.955,2.955,0,0,0,2.1-.876A3.01,3.01,0,0,0,8.178.9,2.955,2.955,0,0,0,6.08.024H3.113a.438.438,0,0,0-.284,0Z" transform="translate(11.754 41.992)" fill="#a1a1a1"/>
  <path id="Vector-10" data-name="Vector" d="M2.828.024A2.96,2.96,0,0,0,.772,1a3.013,3.013,0,0,0,.2,4.231,2.956,2.956,0,0,0,2.14.775H6.08a2.955,2.955,0,0,0,2.1-.876A3.01,3.01,0,0,0,8.178.9,2.955,2.955,0,0,0,6.08.024H3.113a.438.438,0,0,0-.284,0Z" transform="translate(11.754 53.992)" fill="#a1a1a1"/>
  <path id="Vector-11" data-name="Vector" d="M1.993,0A3.162,3.162,0,0,0,.5,1.234a3.2,3.2,0,0,0,.175,3.7,3.155,3.155,0,0,0,1.6,1.085H5.244a2.99,2.99,0,0,0,1.919-.982,3.043,3.043,0,0,0,0-4.051A2.99,2.99,0,0,0,5.244,0H1.993Z" transform="translate(12.59 9.008)" fill="#a1a1a1"/>
</svg>
