<svg xmlns="http://www.w3.org/2000/svg" width="65" height="65" viewBox="0 0 65 65">
  <g id="_1" data-name="1" transform="translate(-0.371 0.057)">
    <rect id="Background" width="65" height="65" rx="16" transform="translate(0.371 -0.057)" fill="#5142fc"/>
    <g id="Wallet" transform="translate(18.743 20.575)">
      <path id="Path_33915" d="M2.946,5.448h0a2.933,2.933,0,0,1-2.9-2.18A2.648,2.648,0,0,1,.659,1.011,2.966,2.966,0,0,1,2.875,0h4.9a1.024,1.024,0,0,1,1.05.994V4.453a1.041,1.041,0,0,1-1.05.994H2.946ZM3.074,1.6a1.1,1.1,0,0,0-.747.291.984.984,0,0,0-.315.716A1.064,1.064,0,0,0,3.087,3.636h.462a1.05,1.05,0,0,0,1.075-1.02A1.049,1.049,0,0,0,3.549,1.6H3.074Z" transform="translate(19.292 9.393)" fill="rgba(249,249,250,0.4)"/>
      <path id="Path_33914-path" d="M22.167,7.355h5.948C28.114,2.712,25.253,0,20.4,0H7.71C2.861,0,0,2.712,0,7.3V17.3c0,4.584,2.861,7.3,7.71,7.3H20.4c4.848,0,7.71-2.712,7.71-7.3v-.426H22.167a4.873,4.873,0,0,1-5-4.738,4.873,4.873,0,0,1,5-4.738Z" fill="#fff"/>
      <path id="Path_33914-path-2" data-name="Path_33914-path" d="M9.009,2.037H1.075A1.059,1.059,0,0,1,0,1.007,1.049,1.049,0,0,1,1.075,0H9.009a1.048,1.048,0,0,1,1.075,1.019A1.048,1.048,0,0,1,9.009,2.037Z" transform="translate(5.585 5.318)" fill="#948bfb"/>
    </g>
  </g>
</svg>
