<svg id="_14_-_Image_1" data-name="14 - Image 1" xmlns="http://www.w3.org/2000/svg" width="72" height="72" viewBox="0 0 72 72">
  <path id="Vector" d="M24.921,5.554H47.05a19.308,19.308,0,0,1,19.4,19.4V47.079a19.308,19.308,0,0,1-19.4,19.4H24.921a19.308,19.308,0,0,1-19.4-19.4V24.95a19.308,19.308,0,0,1,19.4-19.4Zm0-5.554A24.95,24.95,0,0,0,0,24.95V47.079A24.921,24.921,0,0,0,24.921,72H47.05A24.95,24.95,0,0,0,72,47.079V24.95A24.98,24.98,0,0,0,47.05,0Z" transform="translate(0)" fill="#a1a1a1"/>
  <path id="Vector-2" data-name="Vector" d="M18.66,0a2.939,2.939,0,0,0-.852,5.378A9.7,9.7,0,1,1,5.524,17.633,2.85,2.85,0,1,0,.175,19.6,15.223,15.223,0,1,0,19.63.147,3.38,3.38,0,0,0,18.66,0Z" transform="translate(0.559 0.735)" fill="#a1a1a1"/>
  <path id="Vector-3" data-name="Vector" d="M17.461,0A10.58,10.58,0,0,0,9.32,3.82L9.614,3.5.386,11.549A2.939,2.939,0,0,0,4.06,15.722l9.2-8.052.264-.323a5.025,5.025,0,0,1,7.788,0l7.817,9.4a2.792,2.792,0,0,0,4.261-3.585L25.572,3.82A10.58,10.58,0,0,0,17.461,0Z" transform="translate(1.906 41.202)" fill="#a1a1a1"/>
  <path id="Vector-4" data-name="Vector" d="M23.056,0a9.669,9.669,0,0,0-7.817,3.909L.545,24.011a2.7,2.7,0,0,0,.617,3.85,2.762,2.762,0,0,0,3.879-.588l14.694-20.1a4.056,4.056,0,0,1,6.671,0h0L39.278,24.04a2.792,2.792,0,0,0,4.438-3.35L30.844,3.851A9.551,9.551,0,0,0,23.056,0Z" transform="translate(27.638 24.979)" fill="#a1a1a1"/>
  <path id="Vector-5" data-name="Vector" d="M1.978,0a2.939,2.939,0,0,0,0,5.554h11.05a2.939,2.939,0,0,0,0-5.554Z" transform="translate(31.26 36)" fill="#a1a1a1"/>
  <path id="Vector-6" data-name="Vector" d="M1.978,0a2.939,2.939,0,0,0,0,5.554h8.287a2.939,2.939,0,0,0,0-5.554Z" transform="translate(43.72 47.079)" fill="#a1a1a1"/>
  <path id="Vector-7" data-name="Vector" d="M2.633,0A2.766,2.766,0,0,0,2.9,5.525h8.317a2.762,2.762,0,1,0,0-5.525Z" transform="translate(44.152 13.871)" fill="#a1a1a1"/>
</svg>
