<svg xmlns="http://www.w3.org/2000/svg" width="72.021" height="72" viewBox="0 0 72.021 72">
  <g id="_20_-_Checkout_1" data-name="20 - Checkout 1" transform="translate(0)">
    <path id="Vector" d="M43.735,38.751a2.571,2.571,0,0,0-1.517.514l-8.563,6.506-3.7-3.729a2.571,2.571,0,0,0-3.471,0,2.391,2.391,0,0,0,0,3.471l5.143,5.143a2.391,2.391,0,0,0,3.137.231l10.286-7.714a2.391,2.391,0,0,0-1.311-4.423Zm-7.714-8.1a13.063,13.063,0,1,1-5.015.98,13.114,13.114,0,0,1,5.015-.98Zm0-4.809a18,18,0,1,0,12.728,5.272,18,18,0,0,0-12.728-5.272Zm-18.566-8.1h2.777c-.977,2.726-1.517,4.757-1.517,4.757a2.4,2.4,0,1,0,4.654,1.183,52.791,52.791,0,0,1,1.98-5.94h22.4a60.043,60.043,0,0,1,1.98,5.94A2.4,2.4,0,0,0,54.381,22.5s-.54-2.031-1.517-4.757H55.1a6.017,6.017,0,0,1,4.629,2.289,21.806,21.806,0,0,1,3.986,7.123,72.411,72.411,0,0,1,3.5,21.7c0,5.3-.309,9.36-4.166,12.523s-12.06,5.709-28.131,5.709c-14.323.1-22.037-2.289-25.843-5.374s-4.4-7.277-4.243-12.677a71.589,71.589,0,0,1,3.7-21.78,21.24,21.24,0,0,1,4.089-7.174,6.351,6.351,0,0,1,4.834-2.34ZM36.535,4.886a7.277,7.277,0,0,1,5.143,2.571,23.863,23.863,0,0,1,3.883,5.4h-18a24.583,24.583,0,0,1,3.909-5.606,7.3,7.3,0,0,1,5.066-2.443Zm0-4.886a12.009,12.009,0,0,0-8.46,3.934,29.16,29.16,0,0,0-5.3,7.714,13.551,13.551,0,0,0-.566,1.26H17.455a11.6,11.6,0,0,0-8.331,3.857A26.2,26.2,0,0,0,3.981,25.56a75.291,75.291,0,0,0-3.96,23.3c-.18,5.914.72,12.137,5.94,16.483S19.949,72,34.915,72c16.56,0,25.714-2.366,31.191-6.814s5.914-10.671,5.914-16.329a76.629,76.629,0,0,0-3.806-23.374,25.714,25.714,0,0,0-4.963-8.743A11.109,11.109,0,0,0,55.1,12.857H50.884c-.206-.437-.334-.823-.566-1.26a29.777,29.777,0,0,0-5.3-7.714A12.009,12.009,0,0,0,36.535,0Z" transform="translate(0)" fill="#a1a1a1"/>
  </g>
</svg>
