<svg xmlns="http://www.w3.org/2000/svg" width="65" height="65" viewBox="0 0 65 65">
  <g id="_3" data-name="3" transform="translate(0.057 0.057)">
    <rect id="Background" width="65" height="65" rx="16" transform="translate(-0.057 -0.057)" fill="#9835fb"/>
    <g id="Image_2" data-name="Image 2" transform="translate(20.455 20.454)">
      <path id="Fill_1" data-name="Fill 1" d="M16.507,23H6.483a7.682,7.682,0,0,1-1.244-.11L5.2,22.883a6,6,0,0,1-3.752-2.151c-.007,0-.01,0-.013-.011a.056.056,0,0,0-.008-.012A7.121,7.121,0,0,1,0,16.217V6.772C0,2.721,2.605,0,6.483,0H16.507C20.391,0,23,2.721,23,6.772v9.445a2.594,2.594,0,0,1-.021.292c-.007.063-.015.134-.019.2,0,.039,0,.078,0,.117,0,.06,0,.119-.008.177a.574.574,0,0,1-.011.064.588.588,0,0,0-.011.064,7.883,7.883,0,0,1-.178,1.041c-.016.07-.036.14-.054.207l-.015.055a7.119,7.119,0,0,1-.33.929c-.023.052-.048.1-.074.153l-.008.015-.037.075a6.142,6.142,0,0,1-.468.8c-.034.048-.072.1-.1.137l-.066.084a5.755,5.755,0,0,1-.59.67c-.044.041-.091.079-.137.117l-.005,0-.081.067a6,6,0,0,1-.7.53,1.945,1.945,0,0,1-.172.093c-.04.02-.075.037-.109.056a6.321,6.321,0,0,1-.79.383,2.023,2.023,0,0,1-.206.061c-.052.013-.1.027-.156.043l-.072.022a6.031,6.031,0,0,1-.771.2,4.437,4.437,0,0,1-.483.048c-.072,0-.145.009-.216.015s-.149.015-.221.024A3.013,3.013,0,0,1,16.507,23ZM6.483,1.6C3.52,1.6,1.605,3.633,1.605,6.772v9.445a6.139,6.139,0,0,0,.443,2.345l.457-.557.017-.021c1.187-1.447,1.793-2.184,1.8-2.191a4.165,4.165,0,0,1,3.043-1.7,3.123,3.123,0,0,1,1.207.253,7.581,7.581,0,0,1,1.178.656l.087.056a2.684,2.684,0,0,0,1.364.616c.028,0,.057,0,.085,0a1.17,1.17,0,0,0,.472-.165A15.473,15.473,0,0,0,14.2,12.5c.065-.093.109-.155.124-.174a3.849,3.849,0,0,1,3.011-1.611,3.426,3.426,0,0,1,1.784.508c.2.118,1.759,1.205,2.278,1.646v-6.1c0-3.139-1.919-5.168-4.888-5.168Z" fill="#fff"/>
      <path id="Fill_4" data-name="Fill 4" d="M2.934,5.857A2.943,2.943,0,0,0,5.857,2.946,2.9,2.9,0,0,0,4.991.892,2.9,2.9,0,0,0,0,2.892a2.822,2.822,0,0,0,.069.615A2.951,2.951,0,0,0,2.934,5.857Z" transform="translate(4.829 4.829)" fill="rgba(255,255,255,0.4)"/>
    </g>
  </g>
</svg>
