<svg xmlns="http://www.w3.org/2000/svg" width="77.343" height="72.068" viewBox="0 0 77.343 72.068">
  <g id="_22_-_Wallet_1" data-name="22 - Wallet 1" transform="translate(0 0)">
    <path id="Vector" d="M54.143,59.205a2.589,2.589,0,1,0,0,5.151h2.6a2.589,2.589,0,1,0,0-5.151Zm-13.81,0a2.589,2.589,0,1,0,0,5.151H42.9a2.589,2.589,0,1,0,0-5.151Zm-13.81,0a2.589,2.589,0,1,0,0,5.151h2.569a2.589,2.589,0,1,0,0-5.151Zm-13.81,0a2.589,2.589,0,1,0,0,5.151h2.762a2.589,2.589,0,1,0,0-5.151ZM59.667,41.219H72.123V48.9H59.75a8.243,8.243,0,0,0,0-7.685Zm-8.286,0a5.2,5.2,0,1,0,.193,0Zm-38.5-5.151a2.563,2.563,0,0,0-2.569,2.589V51.493a2.6,2.6,0,1,0,5.165,0V38.63a2.567,2.567,0,0,0-2.6-2.562ZM54.143,25.794a2.562,2.562,0,1,0,0,5.123h2.6a2.562,2.562,0,1,0,0-5.123Zm-13.81,0a2.562,2.562,0,1,0,0,5.123H42.9a2.562,2.562,0,1,0,0-5.123Zm-13.81,0a2.562,2.562,0,1,0,0,5.123h2.569a2.562,2.562,0,1,0,0-5.123Zm-13.81,0a2.562,2.562,0,1,0,0,5.123h2.762a2.562,2.562,0,1,0,0-5.123Zm-7.54-4.6a11.539,11.539,0,0,0,6.573,2.038H61.9a2.536,2.536,0,0,1,2.569,2.562V36.068h-12.9a9.185,9.185,0,0,0-9.114,9.007,8.778,8.778,0,0,0,9.114,8.979h12.9v10.3A2.539,2.539,0,0,1,61.9,66.917H8.738a3.6,3.6,0,0,1-2.513-1.047,3.384,3.384,0,0,1-1.05-2.424ZM11.748,5.219H51.575A5.257,5.257,0,0,1,55.552,6.4a4.236,4.236,0,0,1,1.1,2.754H17.8a2.589,2.589,0,0,0,.276,5.151H56.74v3.856H11.748a6.446,6.446,0,1,1,0-12.863Zm0-5.151A11.7,11.7,0,0,0,.01,11.086a3.736,3.736,0,0,0,0,.551v51.81a8.665,8.665,0,0,0,2.569,6.115,8.851,8.851,0,0,0,6.159,2.507H61.9a7.75,7.75,0,0,0,7.706-7.712v-10.3h2.6A5.185,5.185,0,0,0,77.343,48.9V41.219a5.185,5.185,0,0,0-5.137-5.151h-2.6V25.794A7.75,7.75,0,0,0,61.9,18.082v-7.74a10.477,10.477,0,0,0-2.762-7.575A10.485,10.485,0,0,0,51.52.013Z" transform="translate(0 0)" fill="#a1a1a1"/>
  </g>
</svg>
