
<svg xmlns="http://www.w3.org/2000/svg" width="262.439" height="85.355" viewBox="0 0 262.439 85.355">
  <g id="Group_168" data-name="Group 168" transform="translate(-137.561 -24.71)">
    <g id="Group_164" data-name="Group 164" transform="translate(-1 -2)">
      <text id="TAGLINE_HERE" data-name="TAGLINE HERE" transform="translate(245.613 94.775)" fill="#fff" font-size="15" font-family="Montserrat-SemiBold, Montserrat" font-weight="600" letter-spacing="0.24em"><tspan x="0" y="0">TAGLINE HERE</tspan></text>
      <text id="CROSEA" transform="translate(243 71)" fill="#fff" font-size="32" font-family="Montserrat-Bold, Montserrat" font-weight="700" letter-spacing="0.106em"><tspan x="0" y="0">CROSEA</tspan></text>
    </g>
    <path id="Path_113" data-name="Path 113" d="M501.271,272.789a42.585,42.585,0,0,0,12.415-30.112,2.647,2.647,0,1,0-5.295,0,37.323,37.323,0,0,1-10.885,26.389,36.373,36.373,0,0,1-52.112,0,37.43,37.43,0,0,1,0-52.777A36.451,36.451,0,0,1,471.259,205.3a3.951,3.951,0,0,1-.046,7.9,2.684,2.684,0,0,0-.286.016,28.456,28.456,0,0,0-19.435,8.553,29.125,29.125,0,0,0,0,41.051,28.427,28.427,0,0,0,40.681,0,29.029,29.029,0,0,0,8.462-20.526,9.174,9.174,0,1,0-18.347,0c0,.076.005.15.011.224s-.011.149-.011.224a10.665,10.665,0,1,1-10.664-10.576,2.647,2.647,0,1,0,0-5.295,15.871,15.871,0,1,0,15.959,15.871c0-.076-.005-.15-.011-.224s.011-.148.011-.224a3.879,3.879,0,1,1,7.757,0,23.766,23.766,0,0,1-6.932,16.8,23.132,23.132,0,0,1-33.151,0,23.83,23.83,0,0,1,0-33.6,23.187,23.187,0,0,1,16.575-7,2.652,2.652,0,0,0,.7-.1,9.253,9.253,0,0,0-.8-18.379,2.708,2.708,0,0,0-.287-.016l-.16,0-.078,0c-.026,0-.052,0-.077,0a41.707,41.707,0,0,0-29.506,12.562,42.724,42.724,0,0,0,0,60.223,41.667,41.667,0,0,0,59.641,0Z" transform="translate(-291.653 -175.29)" fill="#fff"/>
  </g>
</svg>
